<svg xmlns="http://www.w3.org/2000/svg" xmlns:xlink="http://www.w3.org/1999/xlink" xmlns:lucid="lucid" width="1180.5" height="785"><g transform="translate(-299.5 20.5)" lucid:page-tab-id="0_0"><path d="M0 0h1500v1000H0z" fill="#fff"/><path d="M1099.9 128h17.85a12 12 0 0 1 12 12v164a12 12 0 0 0 12 12H1159" stroke="#333" fill="none"/><path d="M1080.72 118l20 10-20 10" stroke="#333" fill="#fff" fill-opacity="0"/><path d="M1080.72 128h20M1159 306v20M1179 316h-20" stroke="#333" fill="#fff"/><path d="M800 45a5 5 0 0 1 5-5h270a5 5 0 0 1 5 5v222a5 5 0 0 1-5 5H805a5 5 0 0 1-5-5z" fill="#fff"/><path d="M800 80V45a5 5 0 0 1 5-5h270a5 5 0 0 1 5 5v35" fill="#dedeff"/><path d="M800 45a5 5 0 0 1 5-5h270a5 5 0 0 1 5 5v222a5 5 0 0 1-5 5H805a5 5 0 0 1-5-5zM800 80h280M940 80v192" stroke="#282c33" fill="none"/><use xlink:href="#a" transform="matrix(1,0,0,1,810,40) translate(0 23.6)"/><use xlink:href="#b" transform="matrix(1,0,0,1,805,82.5) translate(0 17.1)"/><use xlink:href="#c" transform="matrix(1,0,0,1,945,82.5) translate(0 17.1)"/><use xlink:href="#d" transform="matrix(1,0,0,1,805,114.5) translate(0 17.1)"/><use xlink:href="#e" transform="matrix(1,0,0,1,945,114.5) translate(0 17.1)"/><use xlink:href="#f" transform="matrix(1,0,0,1,805,146.5) translate(0 17.1)"/><use xlink:href="#g" transform="matrix(1,0,0,1,945,146.5) translate(0 17.1)"/><use xlink:href="#h" transform="matrix(1,0,0,1,805,178.5) translate(0 17.1)"/><use xlink:href="#i" transform="matrix(1,0,0,1,945,178.5) translate(0 17.1)"/><use xlink:href="#j" transform="matrix(1,0,0,1,805,210.5) translate(0 17.1)"/><use xlink:href="#g" transform="matrix(1,0,0,1,945,210.5) translate(0 17.1)"/><use xlink:href="#k" transform="matrix(1,0,0,1,805,242.5) translate(0 17.1)"/><use xlink:href="#i" transform="matrix(1,0,0,1,945,242.5) translate(0 17.1)"/><path d="M1179.5 265a5 5 0 0 1 5-5h270a5 5 0 0 1 5 5v126a5 5 0 0 1-5 5h-270a5 5 0 0 1-5-5z" fill="#fff"/><path d="M1179.5 300v-35a5 5 0 0 1 5-5h270a5 5 0 0 1 5 5v35" fill="#dedeff"/><path d="M1179.5 265a5 5 0 0 1 5-5h270a5 5 0 0 1 5 5v126a5 5 0 0 1-5 5h-270a5 5 0 0 1-5-5zM1179.5 300h280M1319.5 300v96" stroke="#282c33" fill="none"/><use xlink:href="#l" transform="matrix(1,0,0,1,1189.5,260) translate(0 23.6)"/><use xlink:href="#b" transform="matrix(1,0,0,1,1184.5,302.5) translate(0 17.1)"/><use xlink:href="#m" transform="matrix(1,0,0,1,1324.5,302.5) translate(0 17.1)"/><use xlink:href="#n" transform="matrix(1,0,0,1,1184.5,334.5) translate(0 17.1)"/><use xlink:href="#i" transform="matrix(1,0,0,1,1324.5,334.5) translate(0 17.1)"/><use xlink:href="#o" transform="matrix(1,0,0,1,1184.5,366.5) translate(0 17.1)"/><use xlink:href="#i" transform="matrix(1,0,0,1,1324.5,366.5) translate(0 17.1)"/><path d="M1179.5 445a5 5 0 0 1 5-5H1434a5 5 0 0 1 5 5v94a5 5 0 0 1-5 5h-249.5a5 5 0 0 1-5-5z" fill="#fff"/><path d="M1179.5 480v-35a5 5 0 0 1 5-5H1434a5 5 0 0 1 5 5v35" fill="#b8f5ed"/><path d="M1179.5 445a5 5 0 0 1 5-5H1434a5 5 0 0 1 5 5v94a5 5 0 0 1-5 5h-249.5a5 5 0 0 1-5-5zM1179.5 480H1439M1317.78 480v64" stroke="#282c33" fill="none"/><use xlink:href="#p" transform="matrix(1,0,0,1,1189.5,440) translate(0 23.6)"/><use xlink:href="#b" transform="matrix(1,0,0,1,1184.5,482.5) translate(0 17.1)"/><use xlink:href="#c" transform="matrix(1,0,0,1,1322.7798345758615,482.5) translate(0 17.1)"/><use xlink:href="#k" transform="matrix(1,0,0,1,1184.5,514.5) translate(0 17.1)"/><use xlink:href="#i" transform="matrix(1,0,0,1,1322.7798345758615,514.5) translate(0 17.1)"/><path d="M320 16a16 16 0 0 1 16-16h251.23a16 16 0 0 1 16 16v148a16 16 0 0 1-16 16H336a16 16 0 0 1-16-16z" stroke="#4c535d" fill="#fff"/><path d="M380.87 73.9c0 7.22-5.84 13.06-13.04 13.06-7.2 0-13.05-5.84-13.05-13.05 0-7.2 5.84-13.03 13.05-13.03 7.2 0 13.04 5.84 13.04 13.04z" stroke="#000" stroke-opacity=".25" fill="#dedeff"/><path d="M380.87 108.7c0 7.2-5.84 13.04-13.04 13.04-7.2 0-13.05-5.84-13.05-13.04 0-7.2 5.84-13.05 13.05-13.05 7.2 0 13.04 5.84 13.04 13.05z" stroke="#000" stroke-opacity=".25" fill="#b8f5ed"/><path d="M380.87 143.48c0 7.2-5.84 13.04-13.04 13.04-7.2 0-13.05-5.84-13.05-13.04 0-7.2 5.84-13.04 13.05-13.04 7.2 0 13.04 5.84 13.04 13.04z" stroke="#000" stroke-opacity=".25" fill="#ffdda6"/><use xlink:href="#q" transform="matrix(1,0,0,1,354.7826086956522,26.08695652173913) translate(0 14.4)"/><use xlink:href="#r" transform="matrix(1,0,0,1,354.7826086956522,26.08695652173913) translate(84.85000000000001 14.4)"/><use xlink:href="#s" transform="matrix(1,0,0,1,393.9130434782609,60.8695652173913) translate(0 16.3)"/><use xlink:href="#t" transform="matrix(1,0,0,1,393.9130434782609,60.8695652173913) translate(32.62777777777778 16.3)"/><use xlink:href="#u" transform="matrix(1,0,0,1,393.9130434782609,60.8695652173913) translate(59.85 16.3)"/><use xlink:href="#v" transform="matrix(1,0,0,1,393.9130434782609,95.65217391304347) translate(0 16.3)"/><use xlink:href="#w" transform="matrix(1,0,0,1,393.9130434782609,130.43478260869563) translate(0 16.3)"/><path d="M800 549a5 5 0 0 1 5-5h270a5 5 0 0 1 5 5v190a5 5 0 0 1-5 5H805a5 5 0 0 1-5-5z" fill="#fff"/><path d="M800 584v-35a5 5 0 0 1 5-5h270a5 5 0 0 1 5 5v35" fill="#b8f5ed"/><path d="M800 549a5 5 0 0 1 5-5h270a5 5 0 0 1 5 5v190a5 5 0 0 1-5 5H805a5 5 0 0 1-5-5zM800 584h280M940 584v160" stroke="#282c33" fill="none"/><use xlink:href="#x" transform="matrix(1,0,0,1,810,544) translate(0 23.6)"/><use xlink:href="#b" transform="matrix(1,0,0,1,805,586.5) translate(0 17.1)"/><use xlink:href="#c" transform="matrix(1,0,0,1,945,586.5) translate(0 17.1)"/><use xlink:href="#y" transform="matrix(1,0,0,1,805,618.5) translate(0 17.1)"/><use xlink:href="#e" transform="matrix(1,0,0,1,945,618.5) translate(0 17.1)"/><use xlink:href="#n" transform="matrix(1,0,0,1,805,650.5) translate(0 17.1)"/><use xlink:href="#i" transform="matrix(1,0,0,1,945,650.5) translate(0 17.1)"/><use xlink:href="#z" transform="matrix(1,0,0,1,805,682.5) translate(0 17.1)"/><use xlink:href="#i" transform="matrix(1,0,0,1,945,682.5) translate(0 17.1)"/><use xlink:href="#o" transform="matrix(1,0,0,1,805,714.5) translate(0 17.1)"/><use xlink:href="#i" transform="matrix(1,0,0,1,945,714.5) translate(0 17.1)"/><path d="M1159 496h-17.25a12 12 0 0 0-12 12v111.96a12 12 0 0 1-12 12h-17.84" stroke="#3a414a" fill="none"/><path d="M1159 486v20M1179 496h-20" stroke="#3a414a" fill="#fff"/><path d="M1080.72 621.96l20 10-20 10" stroke="#3a414a" fill="#fff" fill-opacity="0"/><path d="M1080.72 631.96h20" stroke="#3a414a" fill="#fff"/><path d="M380 305a5 5 0 0 1 5-5h270a5 5 0 0 1 5 5v222a5 5 0 0 1-5 5H385a5 5 0 0 1-5-5z" fill="#fff"/><path d="M380 340v-35a5 5 0 0 1 5-5h270a5 5 0 0 1 5 5v35" fill="#ffdda6"/><path d="M380 305a5 5 0 0 1 5-5h270a5 5 0 0 1 5 5v222a5 5 0 0 1-5 5H385a5 5 0 0 1-5-5zM380 340h280M520 340v192" stroke="#282c33" fill="none"/><use xlink:href="#A" transform="matrix(1,0,0,1,390,300) translate(0 23.6)"/><use xlink:href="#B" transform="matrix(1,0,0,1,385,342.5) translate(0 17.1)"/><use xlink:href="#e" transform="matrix(1,0,0,1,525,342.5) translate(0 17.1)"/><use xlink:href="#d" transform="matrix(1,0,0,1,385,374.5) translate(0 17.1)"/><use xlink:href="#e" transform="matrix(1,0,0,1,525,374.5) translate(0 17.1)"/><use xlink:href="#y" transform="matrix(1,0,0,1,385,406.5) translate(0 17.1)"/><use xlink:href="#e" transform="matrix(1,0,0,1,525,406.5) translate(0 17.1)"/><use xlink:href="#C" transform="matrix(1,0,0,1,385,438.5) translate(0 17.1)"/><use xlink:href="#e" transform="matrix(1,0,0,1,525,438.5) translate(0 17.1)"/><use xlink:href="#D" transform="matrix(1,0,0,1,385,470.5) translate(0 17.1)"/><use xlink:href="#E" transform="matrix(1,0,0,1,525,470.5) translate(0 17.1)"/><use xlink:href="#F" transform="matrix(1,0,0,1,385,502.5) translate(0 17.1)"/><use xlink:href="#G" transform="matrix(1,0,0,1,525,502.5) translate(0 17.1)"/><use xlink:href="#H" transform="matrix(1,0,0,1,525,502.5) translate(44.2 17.1)"/><path d="M779.5 95.8H742a12 12 0 0 0-12 12V344a12 12 0 0 1-12 12h-38.1" stroke="#3a414a" fill="none"/><path d="M779.5 85.8v20M799.5 95.8h-20" stroke="#3a414a" fill="#fff"/><path d="M660.72 346l20 10-20 10" stroke="#3a414a" fill="#fff" fill-opacity="0"/><path d="M660.72 356h20" stroke="#3a414a" fill="#fff"/><path d="M1159 315.96H931.75a12 12 0 0 0-12 12v47.94a12 12 0 0 1-12 12H679.9" stroke="#3a414a" fill="none"/><path d="M1159 305.96v20M1179 315.96h-20" stroke="#3a414a" fill="#fff"/><path d="M660.72 377.9l20 10-20 10" stroke="#3a414a" fill="#fff" fill-opacity="0"/><path d="M660.72 387.9h20" stroke="#3a414a" fill="#fff"/><path d="M1159 496H931.75a12 12 0 0 1-12-12v-52a12 12 0 0 0-12-12H679.9" stroke="#3a414a" fill="none"/><path d="M1159 486v20M1179 496h-20" stroke="#3a414a" fill="#fff"/><path d="M660.72 410l20 10-20 10" stroke="#3a414a" fill="#fff" fill-opacity="0"/><path d="M660.72 420h20" stroke="#3a414a" fill="#fff"/><path d="M779.5 599.84H742a12 12 0 0 1-12-12V464.78a12 12 0 0 0-12-12h-38.1" stroke="#3a414a" fill="none"/><path d="M779.5 589.84v20M799.5 599.84h-20" stroke="#3a414a" fill="#fff"/><path d="M660.72 442.8l20 10-20 10" stroke="#3a414a" fill="#fff" fill-opacity="0"/><path d="M660.72 452.8h20" stroke="#3a414a" fill="#fff"/><defs><path fill="#333" d="M212-179c-10-28-35-45-73-45-59 0-87 40-87 99 0 60 29 101 89 101 43 0 62-24 78-52l27 14C228-24 195 4 139 4 59 4 22-46 18-125c-6-104 99-153 187-111 19 9 31 26 39 46" id="I"/><path fill="#333" d="M141-36C126-15 110 5 73 4 37 3 15-17 15-53c-1-64 63-63 125-63 3-35-9-54-41-54-24 1-41 7-42 31l-33-3c5-37 33-52 76-52 45 0 72 20 72 64v82c-1 20 7 32 28 27v20c-31 9-61-2-59-35zM48-53c0 20 12 33 32 33 41-3 63-29 60-74-43 2-92-5-92 41" id="J"/><path fill="#333" d="M59-47c-2 24 18 29 38 22v24C64 9 27 4 27-40v-127H5v-23h24l9-43h21v43h35v23H59v120" id="K"/><g id="a"><use transform="matrix(0.05,0,0,0.05,0,0)" xlink:href="#I"/><use transform="matrix(0.05,0,0,0.05,12.950000000000001,0)" xlink:href="#J"/><use transform="matrix(0.05,0,0,0.05,22.950000000000003,0)" xlink:href="#K"/></g><path fill="#333" d="M24-231v-30h32v30H24zM24 0v-190h32V0H24" id="L"/><path fill="#333" d="M85-194c31 0 48 13 60 33l-1-100h32l1 261h-30c-2-10 0-23-3-31C134-8 116 4 85 4 32 4 16-35 15-94c0-66 23-100 70-100zm9 24c-40 0-46 34-46 75 0 40 6 74 45 74 42 0 51-32 51-76 0-42-9-74-50-73" id="M"/><g id="b"><use transform="matrix(0.05,0,0,0.05,0,0)" xlink:href="#L"/><use transform="matrix(0.05,0,0,0.05,3.95,0)" xlink:href="#M"/></g><path fill="#333" d="M30-248c87 1 191-15 191 75 0 78-77 80-158 76V0H30v-248zm33 125c57 0 124 11 124-50 0-59-68-47-124-48v98" id="N"/><path fill="#333" d="M194 0L95-120 63-95V0H30v-248h33v124l119-124h40L117-140 236 0h-42" id="O"/><g id="c"><use transform="matrix(0.05,0,0,0.05,0,0)" xlink:href="#N"/><use transform="matrix(0.05,0,0,0.05,12,0)" xlink:href="#O"/></g><path fill="#333" d="M100-194c62-1 85 37 85 99 1 63-27 99-86 99S16-35 15-95c0-66 28-99 85-99zM99-20c44 1 53-31 53-75 0-43-8-75-51-75s-53 32-53 75 10 74 51 75" id="P"/><path fill="#333" d="M206 0h-36l-40-164L89 0H53L-1-190h32L70-26l43-164h34l41 164 42-164h31" id="Q"/><path fill="#333" d="M117-194c89-4 53 116 60 194h-32v-121c0-31-8-49-39-48C34-167 62-67 57 0H25l-1-190h30c1 10-1 24 2 32 11-22 29-35 61-36" id="R"/><path fill="#333" d="M100-194c63 0 86 42 84 106H49c0 40 14 67 53 68 26 1 43-12 49-29l28 8c-11 28-37 45-77 45C44 4 14-33 15-96c1-61 26-98 85-98zm52 81c6-60-76-77-97-28-3 7-6 17-6 28h103" id="S"/><path fill="#333" d="M114-163C36-179 61-72 57 0H25l-1-190h30c1 12-1 29 2 39 6-27 23-49 58-41v29" id="T"/><path fill="#333" d="M-5 72V49h209v23H-5" id="U"/><g id="d"><use transform="matrix(0.05,0,0,0.05,0,0)" xlink:href="#P"/><use transform="matrix(0.05,0,0,0.05,10,0)" xlink:href="#Q"/><use transform="matrix(0.05,0,0,0.05,22.950000000000003,0)" xlink:href="#R"/><use transform="matrix(0.05,0,0,0.05,32.95,0)" xlink:href="#S"/><use transform="matrix(0.05,0,0,0.05,42.95,0)" xlink:href="#T"/><use transform="matrix(0.05,0,0,0.05,48.900000000000006,0)" xlink:href="#U"/><use transform="matrix(0.05,0,0,0.05,58.900000000000006,0)" xlink:href="#L"/><use transform="matrix(0.05,0,0,0.05,62.85,0)" xlink:href="#M"/></g><path fill="#333" d="M63-220v92h138v28H63V0H30v-248h175v28H63" id="V"/><g id="e"><use transform="matrix(0.05,0,0,0.05,0,0)" xlink:href="#V"/><use transform="matrix(0.05,0,0,0.05,10.950000000000001,0)" xlink:href="#O"/></g><path fill="#333" d="M177-190C167-65 218 103 67 71c-23-6-38-20-44-43l32-5c15 47 100 32 89-28v-30C133-14 115 1 83 1 29 1 15-40 15-95c0-56 16-97 71-98 29-1 48 16 59 35 1-10 0-23 2-32h30zM94-22c36 0 50-32 50-73 0-42-14-75-50-75-39 0-46 34-46 75s6 73 46 73" id="W"/><g id="f"><use transform="matrix(0.05,0,0,0.05,0,0)" xlink:href="#J"/><use transform="matrix(0.05,0,0,0.05,10,0)" xlink:href="#W"/><use transform="matrix(0.05,0,0,0.05,20,0)" xlink:href="#S"/></g><path fill="#333" d="M33 0v-248h34V0H33" id="X"/><g id="g"><use transform="matrix(0.05,0,0,0.05,0,0)" xlink:href="#X"/><use transform="matrix(0.05,0,0,0.05,5,0)" xlink:href="#R"/><use transform="matrix(0.05,0,0,0.05,15,0)" xlink:href="#K"/><use transform="matrix(0.05,0,0,0.05,20,0)" xlink:href="#S"/><use transform="matrix(0.05,0,0,0.05,30,0)" xlink:href="#W"/><use transform="matrix(0.05,0,0,0.05,40,0)" xlink:href="#S"/><use transform="matrix(0.05,0,0,0.05,50,0)" xlink:href="#T"/></g><path fill="#333" d="M96-169c-40 0-48 33-48 73s9 75 48 75c24 0 41-14 43-38l32 2c-6 37-31 61-74 61-59 0-76-41-82-99-10-93 101-131 147-64 4 7 5 14 7 22l-32 3c-4-21-16-35-41-35" id="Y"/><path fill="#333" d="M24 0v-261h32V0H24" id="Z"/><g id="h"><use transform="matrix(0.05,0,0,0.05,0,0)" xlink:href="#Y"/><use transform="matrix(0.05,0,0,0.05,9,0)" xlink:href="#P"/><use transform="matrix(0.05,0,0,0.05,19,0)" xlink:href="#Z"/><use transform="matrix(0.05,0,0,0.05,22.95,0)" xlink:href="#P"/><use transform="matrix(0.05,0,0,0.05,32.95,0)" xlink:href="#T"/></g><path fill="#333" d="M185-189c-5-48-123-54-124 2 14 75 158 14 163 119 3 78-121 87-175 55-17-10-28-26-33-46l33-7c5 56 141 63 141-1 0-78-155-14-162-118-5-82 145-84 179-34 5 7 8 16 11 25" id="aa"/><g id="i"><use transform="matrix(0.05,0,0,0.05,0,0)" xlink:href="#aa"/><use transform="matrix(0.05,0,0,0.05,12,0)" xlink:href="#K"/><use transform="matrix(0.05,0,0,0.05,17,0)" xlink:href="#T"/><use transform="matrix(0.05,0,0,0.05,22.95,0)" xlink:href="#L"/><use transform="matrix(0.05,0,0,0.05,26.899999999999995,0)" xlink:href="#R"/><use transform="matrix(0.05,0,0,0.05,36.9,0)" xlink:href="#W"/></g><path fill="#333" d="M108 0H70L1-190h34L89-25l56-165h34" id="ab"/><path fill="#333" d="M135-143c-3-34-86-38-87 0 15 53 115 12 119 90S17 21 10-45l28-5c4 36 97 45 98 0-10-56-113-15-118-90-4-57 82-63 122-42 12 7 21 19 24 35" id="ac"/><g id="j"><use transform="matrix(0.05,0,0,0.05,0,0)" xlink:href="#Z"/><use transform="matrix(0.05,0,0,0.05,3.95,0)" xlink:href="#L"/><use transform="matrix(0.05,0,0,0.05,7.9,0)" xlink:href="#ab"/><use transform="matrix(0.05,0,0,0.05,16.9,0)" xlink:href="#S"/><use transform="matrix(0.05,0,0,0.05,26.899999999999995,0)" xlink:href="#ac"/></g><path fill="#333" d="M210-169c-67 3-38 105-44 169h-31v-121c0-29-5-50-35-48C34-165 62-65 56 0H25l-1-190h30c1 10-1 24 2 32 10-44 99-50 107 0 11-21 27-35 58-36 85-2 47 119 55 194h-31v-121c0-29-5-49-35-48" id="ad"/><g id="k"><use transform="matrix(0.05,0,0,0.05,0,0)" xlink:href="#R"/><use transform="matrix(0.05,0,0,0.05,10,0)" xlink:href="#J"/><use transform="matrix(0.05,0,0,0.05,20,0)" xlink:href="#ad"/><use transform="matrix(0.05,0,0,0.05,34.95,0)" xlink:href="#S"/></g><g id="l"><use transform="matrix(0.05,0,0,0.05,0,0)" xlink:href="#N"/><use transform="matrix(0.05,0,0,0.05,12,0)" xlink:href="#S"/><use transform="matrix(0.05,0,0,0.05,22,0)" xlink:href="#T"/><use transform="matrix(0.05,0,0,0.05,27.950000000000003,0)" xlink:href="#ac"/><use transform="matrix(0.05,0,0,0.05,36.95,0)" xlink:href="#P"/><use transform="matrix(0.05,0,0,0.05,46.95,0)" xlink:href="#R"/></g><g id="m"><use transform="matrix(0.05,0,0,0.05,0,0)" xlink:href="#N"/><use transform="matrix(0.05,0,0,0.05,12,0)" xlink:href="#O"/></g><g id="n"><use transform="matrix(0.05,0,0,0.05,0,0)" xlink:href="#W"/><use transform="matrix(0.05,0,0,0.05,10,0)" xlink:href="#L"/><use transform="matrix(0.05,0,0,0.05,13.949999999999998,0)" xlink:href="#ab"/><use transform="matrix(0.05,0,0,0.05,22.95,0)" xlink:href="#S"/><use transform="matrix(0.05,0,0,0.05,32.95,0)" xlink:href="#R"/><use transform="matrix(0.05,0,0,0.05,42.95,0)" xlink:href="#U"/><use transform="matrix(0.05,0,0,0.05,52.95,0)" xlink:href="#R"/><use transform="matrix(0.05,0,0,0.05,62.95,0)" xlink:href="#J"/><use transform="matrix(0.05,0,0,0.05,72.95,0)" xlink:href="#ad"/><use transform="matrix(0.05,0,0,0.05,87.9,0)" xlink:href="#S"/></g><path fill="#333" d="M84 4C-5 8 30-112 23-190h32v120c0 31 7 50 39 49 72-2 45-101 50-169h31l1 190h-30c-1-10 1-25-2-33-11 22-28 36-60 37" id="ae"/><g id="o"><use transform="matrix(0.05,0,0,0.05,0,0)" xlink:href="#ac"/><use transform="matrix(0.05,0,0,0.05,9,0)" xlink:href="#ae"/><use transform="matrix(0.05,0,0,0.05,19,0)" xlink:href="#T"/><use transform="matrix(0.05,0,0,0.05,24.95,0)" xlink:href="#R"/><use transform="matrix(0.05,0,0,0.05,34.95,0)" xlink:href="#J"/><use transform="matrix(0.05,0,0,0.05,44.95,0)" xlink:href="#ad"/><use transform="matrix(0.05,0,0,0.05,59.900000000000006,0)" xlink:href="#S"/></g><g id="p"><use transform="matrix(0.05,0,0,0.05,0,0)" xlink:href="#I"/><use transform="matrix(0.05,0,0,0.05,12.950000000000001,0)" xlink:href="#Z"/><use transform="matrix(0.05,0,0,0.05,16.900000000000002,0)" xlink:href="#L"/><use transform="matrix(0.05,0,0,0.05,20.85,0)" xlink:href="#R"/><use transform="matrix(0.05,0,0,0.05,30.85,0)" xlink:href="#L"/><use transform="matrix(0.05,0,0,0.05,34.800000000000004,0)" xlink:href="#Y"/></g><path d="M24-248c120-7 223 5 221 122C244-46 201 0 124 0H24v-248zM76-40c74 7 117-18 117-86 0-67-45-88-117-82v168" id="af"/><path d="M133-34C117-15 103 5 69 4 32 3 11-16 11-54c-1-60 55-63 116-61 1-26-3-47-28-47-18 1-26 9-28 27l-52-2c7-38 36-58 82-57s74 22 75 68l1 82c-1 14 12 18 25 15v27c-30 8-71 5-69-32zm-48 3c29 0 43-24 42-57-32 0-66-3-65 30 0 17 8 27 23 27" id="ag"/><path d="M115-3C79 11 28 4 28-45v-112H4v-33h27l15-45h31v45h36v33H77v99c-1 23 16 31 38 25v30" id="ah"/><path d="M135-194c52 0 70 43 70 98 0 56-19 99-73 100-30 1-46-15-58-35L72 0H24l1-261h50v104c11-23 29-37 60-37zM114-30c31 0 40-27 40-66 0-37-7-63-39-63s-41 28-41 65c0 36 8 64 40 64" id="ai"/><path d="M137-138c1-29-70-34-71-4 15 46 118 7 119 86 1 83-164 76-172 9l43-7c4 19 20 25 44 25 33 8 57-30 24-41C81-84 22-81 20-136c-2-80 154-74 161-7" id="aj"/><path d="M185-48c-13 30-37 53-82 52C43 2 14-33 14-96s30-98 90-98c62 0 83 45 84 108H66c0 31 8 55 39 56 18 0 30-7 34-22zm-45-69c5-46-57-63-70-21-2 6-4 13-4 21h74" id="ak"/><g id="q"><use transform="matrix(0.05,0,0,0.05,0,0)" xlink:href="#af"/><use transform="matrix(0.05,0,0,0.05,12.950000000000001,0)" xlink:href="#ag"/><use transform="matrix(0.05,0,0,0.05,22.950000000000003,0)" xlink:href="#ah"/><use transform="matrix(0.05,0,0,0.05,28.900000000000002,0)" xlink:href="#ag"/><use transform="matrix(0.05,0,0,0.05,38.900000000000006,0)" xlink:href="#ai"/><use transform="matrix(0.05,0,0,0.05,49.85000000000001,0)" xlink:href="#ag"/><use transform="matrix(0.05,0,0,0.05,59.85,0)" xlink:href="#aj"/><use transform="matrix(0.05,0,0,0.05,69.85000000000001,0)" xlink:href="#ak"/></g><path d="M114-157C55-157 80-60 75 0H25v-261h50l-1 109c12-26 28-41 61-42 86-1 58 113 63 194h-50c-7-57 23-157-34-157" id="al"/><path d="M135-194c53 0 70 44 70 98 0 56-19 98-73 100-31 1-45-17-59-34 3 33 2 69 2 105H25l-1-265h48c2 10 0 23 3 31 11-24 29-35 60-35zM114-30c33 0 39-31 40-66 0-38-9-64-40-64-56 0-55 130 0 130" id="am"/><g id="r"><use transform="matrix(0.05,0,0,0.05,0,0)" xlink:href="#aj"/><use transform="matrix(0.05,0,0,0.05,10,0)" xlink:href="#al"/><use transform="matrix(0.05,0,0,0.05,20.950000000000003,0)" xlink:href="#ag"/><use transform="matrix(0.05,0,0,0.05,30.950000000000003,0)" xlink:href="#am"/><use transform="matrix(0.05,0,0,0.05,41.900000000000006,0)" xlink:href="#ak"/><use transform="matrix(0.05,0,0,0.05,51.900000000000006,0)" xlink:href="#aj"/></g><path d="M212-179c-10-28-35-45-73-45-59 0-87 40-87 99 0 60 29 101 89 101 43 0 62-24 78-52l27 14C228-24 195 4 139 4 59 4 22-46 18-125c-6-104 99-153 187-111 19 9 31 26 39 46" id="an"/><path d="M141-36C126-15 110 5 73 4 37 3 15-17 15-53c-1-64 63-63 125-63 3-35-9-54-41-54-24 1-41 7-42 31l-33-3c5-37 33-52 76-52 45 0 72 20 72 64v82c-1 20 7 32 28 27v20c-31 9-61-2-59-35zM48-53c0 20 12 33 32 33 41-3 63-29 60-74-43 2-92-5-92 41" id="ao"/><path d="M59-47c-2 24 18 29 38 22v24C64 9 27 4 27-40v-127H5v-23h24l9-43h21v43h35v23H59v120" id="ap"/><path d="M135-143c-3-34-86-38-87 0 15 53 115 12 119 90S17 21 10-45l28-5c4 36 97 45 98 0-10-56-113-15-118-90-4-57 82-63 122-42 12 7 21 19 24 35" id="aq"/><g id="s"><use transform="matrix(0.03888888888888889,0,0,0.03888888888888889,0,0)" xlink:href="#an"/><use transform="matrix(0.03888888888888889,0,0,0.03888888888888889,10.072222222222223,0)" xlink:href="#ao"/><use transform="matrix(0.03888888888888889,0,0,0.03888888888888889,17.85,0)" xlink:href="#ap"/><use transform="matrix(0.03888888888888889,0,0,0.03888888888888889,21.73888888888889,0)" xlink:href="#aq"/></g><path d="M117-194c89-4 53 116 60 194h-32v-121c0-31-8-49-39-48C34-167 62-67 57 0H25l-1-190h30c1 10-1 24 2 32 11-22 29-35 61-36" id="ar"/><path d="M85-194c31 0 48 13 60 33l-1-100h32l1 261h-30c-2-10 0-23-3-31C134-8 116 4 85 4 32 4 16-35 15-94c0-66 23-100 70-100zm9 24c-40 0-46 34-46 75 0 40 6 74 45 74 42 0 51-32 51-76 0-42-9-74-50-73" id="as"/><g id="t"><use transform="matrix(0.03888888888888889,0,0,0.03888888888888889,0,0)" xlink:href="#ao"/><use transform="matrix(0.03888888888888889,0,0,0.03888888888888889,7.777777777777778,0)" xlink:href="#ar"/><use transform="matrix(0.03888888888888889,0,0,0.03888888888888889,15.555555555555555,0)" xlink:href="#as"/></g><path d="M100-194c62-1 85 37 85 99 1 63-27 99-86 99S16-35 15-95c0-66 28-99 85-99zM99-20c44 1 53-31 53-75 0-43-8-75-51-75s-53 32-53 75 10 74 51 75" id="at"/><path d="M206 0h-36l-40-164L89 0H53L-1-190h32L70-26l43-164h34l41 164 42-164h31" id="au"/><path d="M100-194c63 0 86 42 84 106H49c0 40 14 67 53 68 26 1 43-12 49-29l28 8c-11 28-37 45-77 45C44 4 14-33 15-96c1-61 26-98 85-98zm52 81c6-60-76-77-97-28-3 7-6 17-6 28h103" id="av"/><path d="M114-163C36-179 61-72 57 0H25l-1-190h30c1 12-1 29 2 39 6-27 23-49 58-41v29" id="aw"/><g id="u"><use transform="matrix(0.03888888888888889,0,0,0.03888888888888889,0,0)" xlink:href="#at"/><use transform="matrix(0.03888888888888889,0,0,0.03888888888888889,7.777777777777778,0)" xlink:href="#au"/><use transform="matrix(0.03888888888888889,0,0,0.03888888888888889,17.85,0)" xlink:href="#ar"/><use transform="matrix(0.03888888888888889,0,0,0.03888888888888889,25.627777777777776,0)" xlink:href="#av"/><use transform="matrix(0.03888888888888889,0,0,0.03888888888888889,33.40555555555556,0)" xlink:href="#aw"/><use transform="matrix(0.03888888888888889,0,0,0.03888888888888889,38.03333333333334,0)" xlink:href="#aq"/></g><path d="M137 0h-34L2-248h35l83 218 83-218h36" id="ax"/><path d="M24-231v-30h32v30H24zM24 0v-190h32V0H24" id="ay"/><path d="M179-190L93 31C79 59 56 82 12 73V49c39 6 53-20 64-50L1-190h34L92-34l54-156h33" id="az"/><g id="v"><use transform="matrix(0.03888888888888889,0,0,0.03888888888888889,0,0)" xlink:href="#ax"/><use transform="matrix(0.03888888888888889,0,0,0.03888888888888889,8.555555555555555,0)" xlink:href="#av"/><use transform="matrix(0.03888888888888889,0,0,0.03888888888888889,16.333333333333332,0)" xlink:href="#ap"/><use transform="matrix(0.03888888888888889,0,0,0.03888888888888889,20.22222222222222,0)" xlink:href="#av"/><use transform="matrix(0.03888888888888889,0,0,0.03888888888888889,28,0)" xlink:href="#aw"/><use transform="matrix(0.03888888888888889,0,0,0.03888888888888889,32.62777777777778,0)" xlink:href="#ay"/><use transform="matrix(0.03888888888888889,0,0,0.03888888888888889,35.7,0)" xlink:href="#ar"/><use transform="matrix(0.03888888888888889,0,0,0.03888888888888889,43.47777777777778,0)" xlink:href="#ao"/><use transform="matrix(0.03888888888888889,0,0,0.03888888888888889,51.25555555555555,0)" xlink:href="#aw"/><use transform="matrix(0.03888888888888889,0,0,0.03888888888888889,55.88333333333334,0)" xlink:href="#az"/></g><path d="M205 0l-28-72H64L36 0H1l101-248h38L239 0h-34zm-38-99l-47-123c-12 45-31 82-46 123h93" id="aA"/><path d="M115-194c55 1 70 41 70 98S169 2 115 4C84 4 66-9 55-30l1 105H24l-1-265h31l2 30c10-21 28-34 59-34zm-8 174c40 0 45-34 45-75s-6-73-45-74c-42 0-51 32-51 76 0 43 10 73 51 73" id="aB"/><path d="M210-169c-67 3-38 105-44 169h-31v-121c0-29-5-50-35-48C34-165 62-65 56 0H25l-1-190h30c1 10-1 24 2 32 10-44 99-50 107 0 11-21 27-35 58-36 85-2 47 119 55 194h-31v-121c0-29-5-49-35-48" id="aC"/><g id="w"><use transform="matrix(0.03888888888888889,0,0,0.03888888888888889,0,0)" xlink:href="#aA"/><use transform="matrix(0.03888888888888889,0,0,0.03888888888888889,9.333333333333334,0)" xlink:href="#aB"/><use transform="matrix(0.03888888888888889,0,0,0.03888888888888889,17.11111111111111,0)" xlink:href="#aB"/><use transform="matrix(0.03888888888888889,0,0,0.03888888888888889,24.88888888888889,0)" xlink:href="#at"/><use transform="matrix(0.03888888888888889,0,0,0.03888888888888889,32.666666666666664,0)" xlink:href="#ay"/><use transform="matrix(0.03888888888888889,0,0,0.03888888888888889,35.73888888888889,0)" xlink:href="#ar"/><use transform="matrix(0.03888888888888889,0,0,0.03888888888888889,43.516666666666666,0)" xlink:href="#ap"/><use transform="matrix(0.03888888888888889,0,0,0.03888888888888889,47.405555555555544,0)" xlink:href="#aC"/><use transform="matrix(0.03888888888888889,0,0,0.03888888888888889,59.03333333333333,0)" xlink:href="#av"/><use transform="matrix(0.03888888888888889,0,0,0.03888888888888889,66.8111111111111,0)" xlink:href="#ar"/><use transform="matrix(0.03888888888888889,0,0,0.03888888888888889,74.58888888888887,0)" xlink:href="#ap"/><use transform="matrix(0.03888888888888889,0,0,0.03888888888888889,78.47777777777776,0)" xlink:href="#aq"/></g><path fill="#333" d="M137 0h-34L2-248h35l83 218 83-218h36" id="aD"/><g id="x"><use transform="matrix(0.05,0,0,0.05,0,0)" xlink:href="#aD"/><use transform="matrix(0.05,0,0,0.05,11,0)" xlink:href="#S"/><use transform="matrix(0.05,0,0,0.05,21,0)" xlink:href="#K"/><use transform="matrix(0.05,0,0,0.05,26,0)" xlink:href="#S"/><use transform="matrix(0.05,0,0,0.05,36,0)" xlink:href="#T"/><use transform="matrix(0.05,0,0,0.05,41.95,0)" xlink:href="#L"/><use transform="matrix(0.05,0,0,0.05,45.900000000000006,0)" xlink:href="#R"/><use transform="matrix(0.05,0,0,0.05,55.900000000000006,0)" xlink:href="#J"/><use transform="matrix(0.05,0,0,0.05,65.9,0)" xlink:href="#T"/><use transform="matrix(0.05,0,0,0.05,71.85000000000001,0)" xlink:href="#L"/><use transform="matrix(0.05,0,0,0.05,75.80000000000001,0)" xlink:href="#J"/><use transform="matrix(0.05,0,0,0.05,85.80000000000001,0)" xlink:href="#R"/></g><g id="y"><use transform="matrix(0.05,0,0,0.05,0,0)" xlink:href="#Y"/><use transform="matrix(0.05,0,0,0.05,9,0)" xlink:href="#Z"/><use transform="matrix(0.05,0,0,0.05,12.949999999999998,0)" xlink:href="#L"/><use transform="matrix(0.05,0,0,0.05,16.9,0)" xlink:href="#R"/><use transform="matrix(0.05,0,0,0.05,26.899999999999995,0)" xlink:href="#L"/><use transform="matrix(0.05,0,0,0.05,30.849999999999994,0)" xlink:href="#Y"/><use transform="matrix(0.05,0,0,0.05,39.849999999999994,0)" xlink:href="#U"/><use transform="matrix(0.05,0,0,0.05,49.849999999999994,0)" xlink:href="#L"/><use transform="matrix(0.05,0,0,0.05,53.79999999999999,0)" xlink:href="#M"/></g><path fill="#333" d="M115-194c53 0 69 39 70 98 0 66-23 100-70 100C84 3 66-7 56-30L54 0H23l1-261h32v101c10-23 28-34 59-34zm-8 174c40 0 45-34 45-75 0-40-5-75-45-74-42 0-51 32-51 76 0 43 10 73 51 73" id="aE"/><g id="z"><use transform="matrix(0.05,0,0,0.05,0,0)" xlink:href="#Z"/><use transform="matrix(0.05,0,0,0.05,3.95,0)" xlink:href="#L"/><use transform="matrix(0.05,0,0,0.05,7.9,0)" xlink:href="#Y"/><use transform="matrix(0.05,0,0,0.05,16.9,0)" xlink:href="#S"/><use transform="matrix(0.05,0,0,0.05,26.899999999999995,0)" xlink:href="#R"/><use transform="matrix(0.05,0,0,0.05,36.9,0)" xlink:href="#ac"/><use transform="matrix(0.05,0,0,0.05,45.9,0)" xlink:href="#S"/><use transform="matrix(0.05,0,0,0.05,55.900000000000006,0)" xlink:href="#U"/><use transform="matrix(0.05,0,0,0.05,65.9,0)" xlink:href="#R"/><use transform="matrix(0.05,0,0,0.05,75.9,0)" xlink:href="#ae"/><use transform="matrix(0.05,0,0,0.05,85.9,0)" xlink:href="#ad"/><use transform="matrix(0.05,0,0,0.05,100.85000000000001,0)" xlink:href="#aE"/><use transform="matrix(0.05,0,0,0.05,110.85000000000001,0)" xlink:href="#S"/><use transform="matrix(0.05,0,0,0.05,120.85000000000001,0)" xlink:href="#T"/></g><path fill="#333" d="M205 0l-28-72H64L36 0H1l101-248h38L239 0h-34zm-38-99l-47-123c-12 45-31 82-46 123h93" id="aF"/><path fill="#333" d="M115-194c55 1 70 41 70 98S169 2 115 4C84 4 66-9 55-30l1 105H24l-1-265h31l2 30c10-21 28-34 59-34zm-8 174c40 0 45-34 45-75s-6-73-45-74c-42 0-51 32-51 76 0 43 10 73 51 73" id="aG"/><g id="A"><use transform="matrix(0.05,0,0,0.05,0,0)" xlink:href="#aF"/><use transform="matrix(0.05,0,0,0.05,12,0)" xlink:href="#aG"/><use transform="matrix(0.05,0,0,0.05,22,0)" xlink:href="#aG"/><use transform="matrix(0.05,0,0,0.05,32,0)" xlink:href="#P"/><use transform="matrix(0.05,0,0,0.05,42,0)" xlink:href="#L"/><use transform="matrix(0.05,0,0,0.05,45.95,0)" xlink:href="#R"/><use transform="matrix(0.05,0,0,0.05,55.95,0)" xlink:href="#K"/><use transform="matrix(0.05,0,0,0.05,60.95,0)" xlink:href="#ad"/><use transform="matrix(0.05,0,0,0.05,75.9,0)" xlink:href="#S"/><use transform="matrix(0.05,0,0,0.05,85.9,0)" xlink:href="#R"/><use transform="matrix(0.05,0,0,0.05,95.9,0)" xlink:href="#K"/></g><g id="B"><use transform="matrix(0.05,0,0,0.05,0,0)" xlink:href="#Y"/><use transform="matrix(0.05,0,0,0.05,9,0)" xlink:href="#J"/><use transform="matrix(0.05,0,0,0.05,19,0)" xlink:href="#K"/><use transform="matrix(0.05,0,0,0.05,24,0)" xlink:href="#U"/><use transform="matrix(0.05,0,0,0.05,34,0)" xlink:href="#L"/><use transform="matrix(0.05,0,0,0.05,37.95,0)" xlink:href="#M"/></g><g id="C"><use transform="matrix(0.05,0,0,0.05,0,0)" xlink:href="#ab"/><use transform="matrix(0.05,0,0,0.05,9,0)" xlink:href="#S"/><use transform="matrix(0.05,0,0,0.05,19,0)" xlink:href="#K"/><use transform="matrix(0.05,0,0,0.05,24,0)" xlink:href="#S"/><use transform="matrix(0.05,0,0,0.05,34,0)" xlink:href="#T"/><use transform="matrix(0.05,0,0,0.05,39.95,0)" xlink:href="#L"/><use transform="matrix(0.05,0,0,0.05,43.900000000000006,0)" xlink:href="#R"/><use transform="matrix(0.05,0,0,0.05,53.900000000000006,0)" xlink:href="#J"/><use transform="matrix(0.05,0,0,0.05,63.900000000000006,0)" xlink:href="#T"/><use transform="matrix(0.05,0,0,0.05,69.85000000000001,0)" xlink:href="#L"/><use transform="matrix(0.05,0,0,0.05,73.80000000000001,0)" xlink:href="#J"/><use transform="matrix(0.05,0,0,0.05,83.80000000000001,0)" xlink:href="#R"/><use transform="matrix(0.05,0,0,0.05,93.80000000000001,0)" xlink:href="#U"/><use transform="matrix(0.05,0,0,0.05,103.80000000000001,0)" xlink:href="#L"/><use transform="matrix(0.05,0,0,0.05,107.75,0)" xlink:href="#M"/></g><g id="D"><use transform="matrix(0.05,0,0,0.05,0,0)" xlink:href="#ac"/><use transform="matrix(0.05,0,0,0.05,9,0)" xlink:href="#K"/><use transform="matrix(0.05,0,0,0.05,14,0)" xlink:href="#J"/><use transform="matrix(0.05,0,0,0.05,24,0)" xlink:href="#T"/><use transform="matrix(0.05,0,0,0.05,29.950000000000003,0)" xlink:href="#K"/></g><path fill="#333" d="M30-248c118-7 216 8 213 122C240-48 200 0 122 0H30v-248zM63-27c89 8 146-16 146-99s-60-101-146-95v194" id="aH"/><g id="E"><use transform="matrix(0.05,0,0,0.05,0,0)" xlink:href="#aH"/><use transform="matrix(0.05,0,0,0.05,12.950000000000001,0)" xlink:href="#J"/><use transform="matrix(0.05,0,0,0.05,22.950000000000003,0)" xlink:href="#K"/><use transform="matrix(0.05,0,0,0.05,27.950000000000003,0)" xlink:href="#S"/><use transform="matrix(0.05,0,0,0.05,37.95,0)" xlink:href="#K"/><use transform="matrix(0.05,0,0,0.05,42.95,0)" xlink:href="#L"/><use transform="matrix(0.05,0,0,0.05,46.900000000000006,0)" xlink:href="#ad"/><use transform="matrix(0.05,0,0,0.05,61.85,0)" xlink:href="#S"/></g><g id="F"><use transform="matrix(0.05,0,0,0.05,0,0)" xlink:href="#M"/><use transform="matrix(0.05,0,0,0.05,10,0)" xlink:href="#ae"/><use transform="matrix(0.05,0,0,0.05,20,0)" xlink:href="#T"/><use transform="matrix(0.05,0,0,0.05,25.950000000000003,0)" xlink:href="#J"/><use transform="matrix(0.05,0,0,0.05,35.95,0)" xlink:href="#K"/><use transform="matrix(0.05,0,0,0.05,40.95,0)" xlink:href="#L"/><use transform="matrix(0.05,0,0,0.05,44.900000000000006,0)" xlink:href="#P"/><use transform="matrix(0.05,0,0,0.05,54.900000000000006,0)" xlink:href="#R"/></g><path fill="#333" d="M127-220V0H93v-220H8v-28h204v28h-85" id="aI"/><g id="G"><use transform="matrix(0.05,0,0,0.05,0,0)" xlink:href="#aI"/><use transform="matrix(0.05,0,0,0.05,10.3,0)" xlink:href="#L"/><use transform="matrix(0.05,0,0,0.05,14.25,0)" xlink:href="#ad"/><use transform="matrix(0.05,0,0,0.05,29.200000000000003,0)" xlink:href="#S"/></g><g id="H"><use transform="matrix(0.05,0,0,0.05,0,0)" xlink:href="#aH"/><use transform="matrix(0.05,0,0,0.05,12.950000000000001,0)" xlink:href="#S"/><use transform="matrix(0.05,0,0,0.05,22.950000000000003,0)" xlink:href="#Z"/><use transform="matrix(0.05,0,0,0.05,26.900000000000002,0)" xlink:href="#K"/><use transform="matrix(0.05,0,0,0.05,31.900000000000002,0)" xlink:href="#J"/></g></defs></g></svg>